<svg xmlns="http://www.w3.org/2000/svg" viewBox="0 0 360 520">
  <defs>
    <radialGradient id="bg03" cx="50%" cy="35%" r="70%">
      <stop offset="0%" stop-color="#160024"/>
      <stop offset="100%" stop-color="#060608"/>
    </radialGradient>
    <radialGradient id="aura03" cx="50%" cy="58%" r="42%">
      <stop offset="0%" stop-color="#9b59b6" stop-opacity="0.5"/>
      <stop offset="100%" stop-color="#9b59b6" stop-opacity="0"/>
    </radialGradient>
    <filter id="bl03"><feGaussianBlur stdDeviation="14"/></filter>
    <filter id="gw03"><feGaussianBlur stdDeviation="3" result="b"/><feMerge><feMergeNode in="b"/><feMergeNode in="SourceGraphic"/></feMerge></filter>
  </defs>

  <rect width="360" height="520" fill="url(#bg03)"/>

  <!-- grid -->
  <g opacity="0.04" stroke="#9b59b6" stroke-width="0.5">
    <line x1="0" y1="60" x2="360" y2="60"/><line x1="0" y1="120" x2="360" y2="120"/>
    <line x1="0" y1="180" x2="360" y2="180"/><line x1="0" y1="240" x2="360" y2="240"/>
    <line x1="0" y1="300" x2="360" y2="300"/><line x1="0" y1="360" x2="360" y2="360"/>
    <line x1="0" y1="420" x2="360" y2="420"/>
    <line x1="60" y1="0" x2="60" y2="520"/><line x1="120" y1="0" x2="120" y2="520"/>
    <line x1="180" y1="0" x2="180" y2="520"/><line x1="240" y1="0" x2="240" y2="520"/>
    <line x1="300" y1="0" x2="300" y2="520"/>
  </g>

  <!-- aura -->
  <ellipse cx="180" cy="310" rx="110" ry="160" fill="url(#aura03)" filter="url(#bl03)"/>

  <!-- diagonal accent -->
  <polygon points="100,0 360,0 360,520 260,520" fill="#9b59b6" opacity="0.03"/>

  <!-- HAIR -->
  <path d="M112,118 L106,60 L124,85 L136,48 L150,78 L163,36 L177,72 L190,28
           L203,68 L218,40 L230,78 L244,52 L256,88 L268,62 L262,118
           A68,75 0 0,1 112,118 Z" fill="#0e0018"/>

  <!-- HEAD -->
  <ellipse cx="187" cy="124" rx="68" ry="74" fill="#10050e"/>

  <!-- eyes -->
  <ellipse cx="165" cy="120" rx="11" ry="5" fill="#9b59b6" opacity="0.8" filter="url(#gw03)"/>
  <ellipse cx="209" cy="120" rx="11" ry="5" fill="#9b59b6" opacity="0.8" filter="url(#gw03)"/>

  <!-- NECK -->
  <rect x="174" y="194" width="26" height="22" fill="#10050e"/>

  <!-- BODY -->
  <path d="M65,214 L70,320 L120,338 L150,346 L174,342 L174,218
           L187,228 L200,218 L200,342 L210,346 L240,338 L290,320 L295,214
           L265,203 L230,197 L200,192 L187,200 L174,192 L144,197 L115,203 Z"
        fill="#0e0018" opacity="0.9"/>

  <!-- collar detail -->
  <path d="M174,218 L158,244 L187,254 L216,244 L200,218 L187,228 Z" 
        fill="#10050e" opacity="0.8"/>

  <!-- center line -->
  <line x1="187" y1="228" x2="187" y2="342" stroke="#9b59b6" stroke-width="0.8" stroke-opacity="0.4"/>

  <!-- LEFT ARM -->
  <path d="M65,214 L50,320 L67,326 L88,332 L100,222 Z" fill="#0e0018" opacity="0.9"/>
  <ellipse cx="60" cy="328" rx="14" ry="9" fill="#10050e"/>

  <!-- RIGHT ARM -->
  <path d="M295,214 L310,320 L293,326 L272,332 L260,222 Z" fill="#0e0018" opacity="0.9"/>
  <ellipse cx="300" cy="328" rx="14" ry="9" fill="#10050e"/>

  <!-- LEFT LEG -->
  <path d="M120,344 L108,488 L130,492 L152,356 Z" fill="#0e0018" opacity="0.85"/>
  <!-- RIGHT LEG -->
  <path d="M254,344 L266,488 L244,492 L222,356 Z" fill="#0e0018" opacity="0.85"/>

  <!-- SHOES -->
  <ellipse cx="120" cy="492" rx="22" ry="9" fill="#060608"/>
  <ellipse cx="254" cy="492" rx="22" ry="9" fill="#060608"/>

  <!-- ── UI decoration ──────── -->
  <polygon points="187,14 200,27 187,40 174,27" fill="none" stroke="#9b59b6" stroke-width="1.4" opacity="0.85"/>
  <polygon points="187,18 196,27 187,36 178,27" fill="#9b59b6" opacity="0.25"/>

  <line x1="8" y1="160" x2="58" y2="160" stroke="#9b59b6" stroke-width="0.7" opacity="0.5"/>
  <line x1="8" y1="165" x2="42" y2="165" stroke="#9b59b6" stroke-width="0.4" opacity="0.3"/>
  <line x1="302" y1="160" x2="352" y2="160" stroke="#9b59b6" stroke-width="0.7" opacity="0.5"/>
  <line x1="318" y1="165" x2="352" y2="165" stroke="#9b59b6" stroke-width="0.4" opacity="0.3"/>

  <path d="M12,12 L36,12 L36,14 L14,14 L14,36 L12,36 Z" fill="#9b59b6" opacity="0.55"/>
  <path d="M348,12 L324,12 L324,14 L346,14 L346,36 L348,36 Z" fill="#9b59b6" opacity="0.55"/>
  <path d="M12,508 L36,508 L36,506 L14,506 L14,484 L12,484 Z" fill="#9b59b6" opacity="0.55"/>
  <path d="M348,508 L324,508 L324,506 L346,506 L346,484 L348,484 Z" fill="#9b59b6" opacity="0.55"/>

  <line x1="30" y1="500" x2="330" y2="500" stroke="#9b59b6" stroke-width="0.7" opacity="0.4"/>
  <text x="187" y="512" text-anchor="middle" font-family="monospace" font-size="8" 
        fill="#9b59b6" opacity="0.7" letter-spacing="5">ANTAGONIST</text>
  <text x="187" y="522" text-anchor="middle" font-family="monospace" font-size="7" 
        fill="#9b59b6" opacity="0.35" letter-spacing="2">OC · 03</text>
</svg>